<?xml version="1.0" encoding="UTF-8"?>
<svg width="300" height="80" viewBox="0 0 300 80" fill="none" xmlns="http://www.w3.org/2000/svg">
  <rect width="300" height="80" fill="transparent"/>

  <!-- ATMA ALIGNER in horizontal layout -->
  <g transform="translate(150, 40)">
    <!-- ATMA -->
    <g transform="translate(0, -10)">
      <!-- A -->
      <path d="M-120 15 L-130 -5 L-110 -5 Z M-125 -10 L-115 -10 M-135 15 L-105 15" stroke="#1a1a1a" stroke-width="2.5" fill="none" stroke-linecap="round" stroke-linejoin="round"/>

      <!-- T -->
      <path d="M-90 -5 L-70 -5 M-80 -5 L-80 15" stroke="#1a1a1a" stroke-width="2.5" fill="none" stroke-linecap="round" stroke-linejoin="round"/>

      <!-- M -->
      <path d="M-55 15 L-55 -5 L-40 10 L-25 -5 L-25 15" stroke="#1a1a1a" stroke-width="2.5" fill="none" stroke-linecap="round" stroke-linejoin="round"/>

      <!-- A -->
      <path d="M-5 15 L5 -5 L15 15 M0 8 L10 8" stroke="#1a1a1a" stroke-width="2.5" fill="none" stroke-linecap="round" stroke-linejoin="round"/>
    </g>

    <!-- ALIGNER -->
    <g transform="translate(0, 15)">
      <!-- A -->
      <path d="M-90 15 L-95 5 L-85 5 Z M-92 3 L-88 3 M-97 15 L-83 15" stroke="#666" stroke-width="1.5" fill="none" stroke-linecap="round" stroke-linejoin="round"/>

      <!-- L -->
      <path d="M-75 5 L-75 15 L-68 15" stroke="#666" stroke-width="1.5" fill="none" stroke-linecap="round" stroke-linejoin="round"/>

      <!-- I -->
      <path d="M-60 5 L-60 15" stroke="#666" stroke-width="1.5" fill="none" stroke-linecap="round" stroke-linejoin="round"/>

      <!-- G -->
      <path d="M-50 8 Q-55 5 -55 10 Q-55 15 -50 13 L-47 13 L-47 10" stroke="#666" stroke-width="1.5" fill="none" stroke-linecap="round" stroke-linejoin="round"/>

      <!-- N -->
      <path d="M-40 15 L-40 5 L-33 12 L-33 5" stroke="#666" stroke-width="1.5" fill="none" stroke-linecap="round" stroke-linejoin="round"/>

      <!-- E -->
      <path d="M-25 5 L-25 15 L-18 15 M-25 10 L-20 10 M-25 5 L-18 5" stroke="#666" stroke-width="1.5" fill="none" stroke-linecap="round" stroke-linejoin="round"/>

      <!-- R -->
      <path d="M-10 15 L-10 5 L-5 5 Q-2 5 -2 7.5 Q-2 10 -5 10 L-10 10 L-2 15" stroke="#666" stroke-width="1.5" fill="none" stroke-linecap="round" stroke-linejoin="round"/>
    </g>
  </g>
</svg>