<?xml version="1.0" encoding="UTF-8"?>
<svg width="500" height="500" viewBox="0 0 500 500" fill="none" xmlns="http://www.w3.org/2000/svg">
  <rect width="500" height="500" fill="#f8f9fa"/>

  <!-- ATMA -->
  <g transform="translate(250, 180)">
    <!-- A -->
    <path d="M-90 80 L-110 30 L-70 30 Z M-100 20 L-80 20 M-120 80 L-60 80" stroke="#1a1a1a" stroke-width="4" fill="none" stroke-linecap="round" stroke-linejoin="round"/>

    <!-- T -->
    <path d="M-40 30 L20 30 M-10 30 L-10 80" stroke="#1a1a1a" stroke-width="4" fill="none" stroke-linecap="round" stroke-linejoin="round"/>

    <!-- M -->
    <path d="M40 80 L40 30 L65 65 L90 30 L90 80" stroke="#1a1a1a" stroke-width="4" fill="none" stroke-linecap="round" stroke-linejoin="round"/>

    <!-- A -->
    <path d="M110 80 L130 30 L150 80 M120 65 L140 65" stroke="#1a1a1a" stroke-width="4" fill="none" stroke-linecap="round" stroke-linejoin="round"/>
  </g>

  <!-- ALIGNER -->
  <g transform="translate(250, 280)">
    <!-- A -->
    <path d="M-140 40 L-150 20 L-130 20 Z M-145 15 L-135 15 M-155 40 L-125 40" stroke="#666" stroke-width="2" fill="none" stroke-linecap="round" stroke-linejoin="round"/>

    <!-- L -->
    <path d="M-110 20 L-110 40 L-95 40" stroke="#666" stroke-width="2" fill="none" stroke-linecap="round" stroke-linejoin="round"/>

    <!-- I -->
    <path d="M-80 20 L-80 40" stroke="#666" stroke-width="2" fill="none" stroke-linecap="round" stroke-linejoin="round"/>

    <!-- G -->
    <path d="M-60 25 Q-70 20 -70 30 Q-70 40 -60 35 L-55 35 L-55 30" stroke="#666" stroke-width="2" fill="none" stroke-linecap="round" stroke-linejoin="round"/>

    <!-- N -->
    <path d="M-40 40 L-40 20 L-25 35 L-25 20" stroke="#666" stroke-width="2" fill="none" stroke-linecap="round" stroke-linejoin="round"/>

    <!-- E -->
    <path d="M-10 20 L-10 40 L5 40 M-10 30 L0 30 M-10 20 L5 20" stroke="#666" stroke-width="2" fill="none" stroke-linecap="round" stroke-linejoin="round"/>

    <!-- R -->
    <path d="M20 40 L20 20 L30 20 Q35 20 35 25 Q35 30 30 30 L20 30 L35 40" stroke="#666" stroke-width="2" fill="none" stroke-linecap="round" stroke-linejoin="round"/>
  </g>
</svg>